<?xml version="1.0" standalone="no"?>
<!DOCTYPE svg PUBLIC "-//W3C//DTD SVG 1.0//EN" "http://www.w3.org/TR/2001/REC-SVG-20010904/DTD/svg10.dtd">
<svg xmlns="http://www.w3.org/2000/svg" xmlns:xlink="http://www.w3.org/1999/xlink" id="body_1" width="512" height="384">

<g transform="matrix(12 0 0 12 64.000015 -0)">
    <path d="M27.5 5L4.5 5C 3.6715913 5.0000443 3.0000443 5.6715913 3 6.5L3 6.5L3 25.5C 3.0000443 26.32841 3.6715913 26.999956 4.5 27L4.5 27L27.5 27C 28.32841 26.999956 28.999956 26.32841 29 25.5L29 25.5L29 6.5C 28.999956 5.6715913 28.32841 5.0000443 27.5 5zM26 18.5L21.20575 13.269899C 21.022373 13.067222 20.763622 12.94901 20.490366 12.943074C 20.217108 12.9371395 19.953468 13.044004 19.761469 13.238529L19.761469 13.238529L14.414059 18.58594L19.82812 24L17 24L12.20709 19.207C 11.816519 18.816622 11.183481 18.816622 10.792911 19.207L10.792911 19.207L6 24L6 8L26 8zM8.1 12.5C 8.099999 11.52929 8.684741 10.654163 9.58156 10.282689C 10.478378 9.911215 11.510661 10.116549 12.197057 10.802944C 12.883451 11.48934 13.088785 12.521622 12.717311 13.418441C 12.345836 14.31526 11.47071 14.900001 10.5 14.9C 9.174528 14.899972 8.100028 13.825472 8.1 12.5z" stroke="none" fill="#B5B5B5" fill-rule="nonzero" />
</g>
</svg>